# xmcd CD database file
#
# Track frame offsets:
#	150
#	18854
#	42323
#	60976
#
# Disc length: 1124 seconds
#
# Revision: 2
# Processed by: cddbd v1.5.2PL0 Copyright (c) Steve Scherf et al.
# Submitted via: CDex 1.70beta2
#
DISCID=25046204
DTITLE=佐藤裕美 - Angelic Symphony/Eternal Love 2004
DYEAR=2004
DGENRE=Anime
TTITLE0=Angelic Symphony
TTITLE1=Eternal Love 2004
TTITLE2=Angelic Symphony karaoke
TTITLE3=Eternal Love 2004 karaoke
EXTD=YEAR: 2004
EXTT0=
EXTT1=
EXTT2=
EXTT3=
PLAYORDER=
